# MagicaVoxel @ Ephtracy

# group
o 

# material
mtllib parallel bars.mtl
usemtl palette

# normals
vn -1 0 0
vn 1 0 0
vn 0 0 1
vn 0 0 -1
vn 0 -1 0
vn 0 1 0

# texcoords
vt 0.978516 0.5
vt 0.994141 0.5

# verts
v -0.6 0 0.7
v -0.6 0 0.6
v -0.6 0 -0.7
v -0.6 0 -0.8
v -0.6 0.1 0.7
v -0.6 0.1 0.6
v -0.6 0.1 -0.7
v -0.6 0.1 -0.8
v -0.5 0.1 -0.3
v -0.5 0.1 -0.5
v -0.5 2.1 0.7
v -0.5 2.1 0.6
v -0.5 2.1 -0.3
v -0.5 2.2 0.7
v -0.5 2.2 0.6
v -0.5 2.2 -0.5
v 0.5 0 0.7
v 0.5 0 0.6
v 0.5 0 -0.3
v 0.5 0 -0.5
v 0.5 0 -0.7
v 0.5 0 -0.8
v 0.5 0.1 0.7
v 0.5 0.1 0.6
v 0.5 0.1 -0.3
v 0.5 0.1 -0.5
v 0.5 0.1 -0.7
v 0.5 0.1 -0.8
v 0.5 0.8 -0.4
v 0.5 0.8 -0.5
v 0.5 1 -0.4
v 0.5 1 -0.5
v 0.5 2.1 0.7
v 0.5 2.1 0.6
v 0.5 2.1 -0.3
v 0.5 2.2 0.7
v 0.5 2.2 0.6
v 0.5 2.2 -0.5
v -0.4 0 0.7
v -0.4 0 0.6
v -0.4 0 -0.3
v -0.4 0 -0.5
v -0.4 0 -0.7
v -0.4 0 -0.8
v -0.4 0.1 0.7
v -0.4 0.1 0.6
v -0.4 0.1 -0.3
v -0.4 0.1 -0.5
v -0.4 0.1 -0.7
v -0.4 0.1 -0.8
v -0.4 0.8 -0.4
v -0.4 0.8 -0.5
v -0.4 1 -0.4
v -0.4 1 -0.5
v -0.4 2.1 0.7
v -0.4 2.1 0.6
v -0.4 2.1 -0.3
v -0.4 2.2 0.7
v -0.4 2.2 0.6
v -0.4 2.2 -0.5
v 0.6 0.1 -0.3
v 0.6 0.1 -0.5
v 0.6 2.1 0.7
v 0.6 2.1 0.6
v 0.6 2.1 -0.3
v 0.6 2.2 0.7
v 0.6 2.2 0.6
v 0.6 2.2 -0.5
v 0.7 0 0.7
v 0.7 0 0.6
v 0.7 0 -0.7
v 0.7 0 -0.8
v 0.7 0.1 0.7
v 0.7 0.1 0.6
v 0.7 0.1 -0.7
v 0.7 0.1 -0.8
v -0.6 0 0.7
v -0.6 0.1 0.7
v -0.5 2.1 0.7
v -0.5 2.2 0.7
v -0.4 0 0.7
v -0.4 0.1 0.7
v -0.4 2.1 0.7
v -0.4 2.2 0.7
v 0.5 0 0.7
v 0.5 0.1 0.7
v 0.5 2.1 0.7
v 0.5 2.2 0.7
v 0.6 2.1 0.7
v 0.6 2.2 0.7
v 0.7 0 0.7
v 0.7 0.1 0.7
v -0.5 0.1 -0.3
v -0.5 2.1 -0.3
v -0.4 0 -0.3
v -0.4 0.1 -0.3
v -0.4 2.1 -0.3
v 0.5 0 -0.3
v 0.5 0.1 -0.3
v 0.5 2.1 -0.3
v 0.6 0.1 -0.3
v 0.6 2.1 -0.3
v -0.4 0.8 -0.4
v -0.4 1 -0.4
v 0.5 0.8 -0.4
v 0.5 1 -0.4
v -0.5 0.1 -0.5
v -0.5 2.2 -0.5
v -0.4 0 -0.5
v -0.4 0.1 -0.5
v -0.4 0.8 -0.5
v -0.4 1 -0.5
v -0.4 2.2 -0.5
v 0.5 0 -0.5
v 0.5 0.1 -0.5
v 0.5 0.8 -0.5
v 0.5 1 -0.5
v 0.5 2.2 -0.5
v 0.6 0.1 -0.5
v 0.6 2.2 -0.5
v -0.6 0 -0.8
v -0.6 0.1 -0.8
v -0.4 0 -0.8
v -0.4 0.1 -0.8
v 0.5 0 -0.8
v 0.5 0.1 -0.8
v 0.7 0 -0.8
v 0.7 0.1 -0.8
v -0.6 0 0.7
v -0.4 0 0.7
v 0.5 0 0.7
v 0.7 0 0.7
v -0.6 0 0.6
v -0.4 0 0.6
v 0.5 0 0.6
v 0.7 0 0.6
v -0.4 0 -0.3
v 0.5 0 -0.3
v -0.4 0 -0.5
v 0.5 0 -0.5
v -0.6 0 -0.7
v -0.4 0 -0.7
v 0.5 0 -0.7
v 0.7 0 -0.7
v -0.6 0 -0.8
v -0.4 0 -0.8
v 0.5 0 -0.8
v 0.7 0 -0.8
v -0.4 0.8 -0.4
v 0.5 0.8 -0.4
v -0.4 0.8 -0.5
v 0.5 0.8 -0.5
v -0.5 2.1 0.7
v -0.4 2.1 0.7
v 0.5 2.1 0.7
v 0.6 2.1 0.7
v -0.5 2.1 0.6
v -0.4 2.1 0.6
v 0.5 2.1 0.6
v 0.6 2.1 0.6
v -0.5 2.1 -0.3
v -0.4 2.1 -0.3
v 0.5 2.1 -0.3
v 0.6 2.1 -0.3
v -0.6 0.1 0.7
v -0.4 0.1 0.7
v 0.5 0.1 0.7
v 0.7 0.1 0.7
v -0.6 0.1 0.6
v -0.4 0.1 0.6
v 0.5 0.1 0.6
v 0.7 0.1 0.6
v -0.5 0.1 -0.3
v -0.4 0.1 -0.3
v 0.5 0.1 -0.3
v 0.6 0.1 -0.3
v -0.5 0.1 -0.5
v -0.4 0.1 -0.5
v 0.5 0.1 -0.5
v 0.6 0.1 -0.5
v -0.6 0.1 -0.7
v -0.4 0.1 -0.7
v 0.5 0.1 -0.7
v 0.7 0.1 -0.7
v -0.6 0.1 -0.8
v -0.4 0.1 -0.8
v 0.5 0.1 -0.8
v 0.7 0.1 -0.8
v -0.4 1 -0.4
v 0.5 1 -0.4
v -0.4 1 -0.5
v 0.5 1 -0.5
v -0.5 2.2 0.7
v -0.4 2.2 0.7
v 0.5 2.2 0.7
v 0.6 2.2 0.7
v -0.5 2.2 0.6
v -0.4 2.2 0.6
v 0.5 2.2 0.6
v 0.6 2.2 0.6
v -0.5 2.2 -0.5
v -0.4 2.2 -0.5
v 0.5 2.2 -0.5
v 0.6 2.2 -0.5

# faces
f 5/2/1 2/2/1 1/2/1
f 6/1/1 3/1/1 2/1/1
f 6/2/1 2/2/1 5/2/1
f 7/2/1 4/2/1 3/2/1
f 7/1/1 3/1/1 6/1/1
f 8/2/1 4/2/1 7/2/1
f 13/1/1 10/1/1 9/1/1
f 14/2/1 12/2/1 11/2/1
f 15/1/1 13/1/1 12/1/1
f 15/2/1 12/2/1 14/2/1
f 16/1/1 10/1/1 13/1/1
f 16/1/1 13/1/1 15/1/1
f 23/2/1 18/2/1 17/2/1
f 24/1/1 19/1/1 18/1/1
f 24/2/1 18/2/1 23/2/1
f 25/1/1 19/1/1 24/1/1
f 26/1/1 21/1/1 20/1/1
f 27/2/1 22/2/1 21/2/1
f 27/1/1 21/1/1 26/1/1
f 28/2/1 22/2/1 27/2/1
f 29/1/1 26/1/1 25/1/1
f 30/1/1 26/1/1 29/1/1
f 31/1/1 29/1/1 25/1/1
f 35/1/1 31/1/1 25/1/1
f 35/1/1 32/1/1 31/1/1
f 36/2/1 34/2/1 33/2/1
f 37/1/1 35/1/1 34/1/1
f 37/2/1 34/2/1 36/2/1
f 38/1/1 32/1/1 35/1/1
f 38/1/1 35/1/1 37/1/1
f 39/2/2 40/2/2 45/2/2
f 40/1/2 41/1/2 46/1/2
f 45/2/2 40/2/2 46/2/2
f 46/1/2 41/1/2 47/1/2
f 42/1/2 43/1/2 48/1/2
f 43/2/2 44/2/2 49/2/2
f 48/1/2 43/1/2 49/1/2
f 49/2/2 44/2/2 50/2/2
f 47/1/2 48/1/2 51/1/2
f 51/1/2 48/1/2 52/1/2
f 47/1/2 51/1/2 53/1/2
f 47/1/2 53/1/2 57/1/2
f 53/1/2 54/1/2 57/1/2
f 55/2/2 56/2/2 58/2/2
f 56/1/2 57/1/2 59/1/2
f 58/2/2 56/2/2 59/2/2
f 57/1/2 54/1/2 60/1/2
f 59/1/2 57/1/2 60/1/2
f 61/1/2 62/1/2 65/1/2
f 63/2/2 64/2/2 66/2/2
f 64/1/2 65/1/2 67/1/2
f 66/2/2 64/2/2 67/2/2
f 65/1/2 62/1/2 68/1/2
f 67/1/2 65/1/2 68/1/2
f 69/2/2 70/2/2 73/2/2
f 70/1/2 71/1/2 74/1/2
f 73/2/2 70/2/2 74/2/2
f 71/2/2 72/2/2 75/2/2
f 74/1/2 71/1/2 75/1/2
f 75/2/2 72/2/2 76/2/2
f 81/2/3 78/2/3 77/2/3
f 82/2/3 78/2/3 81/2/3
f 83/2/3 80/2/3 79/2/3
f 84/2/3 80/2/3 83/2/3
f 89/2/3 88/2/3 87/2/3
f 90/2/3 88/2/3 89/2/3
f 91/2/3 86/2/3 85/2/3
f 92/2/3 86/2/3 91/2/3
f 96/1/3 94/1/3 93/1/3
f 97/1/3 94/1/3 96/1/3
f 98/1/3 96/1/3 95/1/3
f 99/1/3 96/1/3 98/1/3
f 101/1/3 100/1/3 99/1/3
f 102/1/3 100/1/3 101/1/3
f 105/2/3 104/2/3 103/2/3
f 106/2/3 104/2/3 105/2/3
f 107/1/4 108/1/4 110/1/4
f 110/1/4 108/1/4 111/1/4
f 111/1/4 108/1/4 112/1/4
f 112/1/4 108/1/4 113/1/4
f 109/1/4 110/1/4 114/1/4
f 114/1/4 110/1/4 115/1/4
f 111/2/4 112/2/4 116/2/4
f 116/2/4 112/2/4 117/2/4
f 117/1/4 118/1/4 119/1/4
f 116/1/4 117/1/4 119/1/4
f 115/1/4 116/1/4 119/1/4
f 119/1/4 118/1/4 120/1/4
f 121/2/4 122/2/4 123/2/4
f 123/2/4 122/2/4 124/2/4
f 125/2/4 126/2/4 127/2/4
f 127/2/4 126/2/4 128/2/4
f 133/2/5 130/2/5 129/2/5
f 134/2/5 130/2/5 133/2/5
f 135/2/5 132/2/5 131/2/5
f 136/2/5 132/2/5 135/2/5
f 137/1/5 134/1/5 133/1/5
f 138/1/5 136/1/5 135/1/5
f 139/1/5 137/1/5 133/1/5
f 139/1/5 138/1/5 137/1/5
f 140/1/5 136/1/5 138/1/5
f 140/1/5 138/1/5 139/1/5
f 141/1/5 139/1/5 133/1/5
f 142/1/5 139/1/5 141/1/5
f 143/1/5 136/1/5 140/1/5
f 144/1/5 136/1/5 143/1/5
f 145/2/5 142/2/5 141/2/5
f 146/2/5 142/2/5 145/2/5
f 147/2/5 144/2/5 143/2/5
f 148/2/5 144/2/5 147/2/5
f 151/2/5 150/2/5 149/2/5
f 152/2/5 150/2/5 151/2/5
f 157/2/5 154/2/5 153/2/5
f 158/2/5 154/2/5 157/2/5
f 159/2/5 156/2/5 155/2/5
f 160/2/5 156/2/5 159/2/5
f 161/1/5 158/1/5 157/1/5
f 162/1/5 158/1/5 161/1/5
f 163/1/5 160/1/5 159/1/5
f 164/1/5 160/1/5 163/1/5
f 165/2/6 166/2/6 169/2/6
f 169/2/6 166/2/6 170/2/6
f 167/2/6 168/2/6 171/2/6
f 171/2/6 168/2/6 172/2/6
f 169/1/6 170/1/6 173/1/6
f 173/1/6 170/1/6 174/1/6
f 171/1/6 172/1/6 175/1/6
f 175/1/6 172/1/6 176/1/6
f 169/1/6 173/1/6 177/1/6
f 174/1/6 175/1/6 178/1/6
f 178/1/6 175/1/6 179/1/6
f 176/1/6 172/1/6 180/1/6
f 169/1/6 177/1/6 181/1/6
f 177/1/6 178/1/6 181/1/6
f 181/1/6 178/1/6 182/1/6
f 179/1/6 180/1/6 183/1/6
f 180/1/6 172/1/6 184/1/6
f 183/1/6 180/1/6 184/1/6
f 181/2/6 182/2/6 185/2/6
f 185/2/6 182/2/6 186/2/6
f 183/2/6 184/2/6 187/2/6
f 187/2/6 184/2/6 188/2/6
f 189/2/6 190/2/6 191/2/6
f 191/2/6 190/2/6 192/2/6
f 193/2/6 194/2/6 197/2/6
f 197/2/6 194/2/6 198/2/6
f 195/2/6 196/2/6 199/2/6
f 199/2/6 196/2/6 200/2/6
f 197/1/6 198/1/6 201/1/6
f 201/1/6 198/1/6 202/1/6
f 199/1/6 200/1/6 203/1/6
f 203/1/6 200/1/6 204/1/6
